<svg width="96" height="95" viewBox="0 0 96 95" fill="none" xmlns="http://www.w3.org/2000/svg">
<path d="M47.9999 50.4688C35.452 50.4688 25.2395 40.2563 25.2395 27.7083C25.2395 15.1604 35.452 4.94792 47.9999 4.94792C60.5478 4.94792 70.7603 15.1604 70.7603 27.7083C70.7603 40.2563 60.5478 50.4688 47.9999 50.4688ZM47.9999 10.8854C38.7374 10.8854 31.177 18.4458 31.177 27.7083C31.177 36.9708 38.7374 44.5313 47.9999 44.5313C57.2624 44.5313 64.8228 36.9708 64.8228 27.7083C64.8228 18.4458 57.2624 10.8854 47.9999 10.8854Z" fill="#292D32"/>
<path d="M82.0025 90.0521C80.3795 90.0521 79.0337 88.7062 79.0337 87.0833C79.0337 73.4271 65.1008 62.3438 48.0008 62.3438C30.9006 62.3438 16.9673 73.4271 16.9673 87.0833C16.9673 88.7062 15.6215 90.0521 13.9985 90.0521C12.3756 90.0521 11.0298 88.7062 11.0298 87.0833C11.0298 70.1812 27.6152 56.4062 48.0008 56.4062C68.3862 56.4062 84.9712 70.1812 84.9712 87.0833C84.9712 88.7062 83.6254 90.0521 82.0025 90.0521Z" fill="#292D32"/>
</svg>
