<svg width="22" height="22" viewBox="0 0 22 22" fill="none" xmlns="http://www.w3.org/2000/svg">
<g opacity="0.8">
<path fill-rule="evenodd" clip-rule="evenodd" d="M11 0C4.92487 0 0 4.92487 0 11C0 17.0751 4.92487 22 11 22C17.0751 22 22 17.0751 22 11C22 4.92487 17.0751 0 11 0ZM8.5815 5.16878C9.20729 5.1403 9.40724 5.13333 11.0006 5.13333H10.9987C12.5925 5.13333 12.7917 5.1403 13.4175 5.16878C14.0421 5.19738 14.4686 5.29626 14.8426 5.44134C15.2289 5.59106 15.5552 5.79151 15.8815 6.11784C16.2079 6.44394 16.4083 6.77125 16.5587 7.15711C16.7029 7.53014 16.8019 7.95645 16.8312 8.58101C16.8593 9.2068 16.8667 9.40676 16.8667 11.0001C16.8667 12.5934 16.8593 12.7928 16.8312 13.4186C16.8019 14.0429 16.7029 14.4694 16.5587 14.8425C16.4083 15.2283 16.2079 15.5556 15.8815 15.8817C15.5556 16.208 15.2287 16.4089 14.843 16.5588C14.4697 16.7039 14.0429 16.8027 13.4184 16.8313C12.7926 16.8598 12.5932 16.8668 10.9998 16.8668C9.40663 16.8668 9.2068 16.8598 8.58101 16.8313C7.95657 16.8027 7.53014 16.7039 7.15687 16.5588C6.77125 16.4089 6.44394 16.208 6.11797 15.8817C5.79175 15.5556 5.5913 15.2283 5.44134 14.8424C5.29638 14.4694 5.1975 14.0431 5.16878 13.4185C5.14042 12.7927 5.13333 12.5934 5.13333 11.0001C5.13333 9.40676 5.14067 9.20668 5.16866 8.58089C5.19677 7.95657 5.29577 7.53014 5.44121 7.15699C5.59155 6.77125 5.792 6.44394 6.11833 6.11784C6.44442 5.79163 6.77174 5.59118 7.1576 5.44134C7.53062 5.29626 7.95694 5.19738 8.5815 5.16878Z" fill="white"/>
<path fill-rule="evenodd" clip-rule="evenodd" d="M10.4744 6.19068C10.5766 6.19052 10.6865 6.19057 10.8051 6.19062L11.0007 6.19068C12.5671 6.19068 12.7527 6.1963 13.3713 6.22441C13.9433 6.25057 14.2538 6.34614 14.4606 6.42644C14.7343 6.53278 14.9295 6.65989 15.1347 6.86523C15.3401 7.07056 15.4672 7.26612 15.5738 7.5399C15.6541 7.74646 15.7498 8.05691 15.7758 8.62891C15.8039 9.24736 15.81 9.43314 15.81 10.9988C15.81 12.5645 15.8039 12.7503 15.7758 13.3687C15.7497 13.9407 15.6541 14.2512 15.5738 14.4578C15.4674 14.7315 15.3401 14.9265 15.1347 15.1317C14.9294 15.337 14.7345 15.4641 14.4606 15.5705C14.254 15.6511 13.9433 15.7465 13.3713 15.7726C12.7529 15.8007 12.5671 15.8069 11.0007 15.8069C9.43412 15.8069 9.24846 15.8007 8.63001 15.7726C8.058 15.7462 7.74756 15.6507 7.54063 15.5704C7.26685 15.464 7.07129 15.3369 6.86596 15.1316C6.66062 14.9262 6.53351 14.7312 6.42693 14.4573C6.34663 14.2507 6.25093 13.9403 6.2249 13.3683C6.19678 12.7498 6.19116 12.564 6.19116 10.9974C6.19116 9.4307 6.19678 9.2459 6.2249 8.62745C6.25105 8.05544 6.34663 7.74499 6.42693 7.53819C6.53327 7.26441 6.66062 7.06885 6.86596 6.86352C7.07129 6.65818 7.26685 6.53107 7.54063 6.42449C7.74743 6.34382 8.058 6.24849 8.63001 6.22221C9.17122 6.19776 9.38095 6.19043 10.4744 6.18921V6.19068ZM14.1323 7.1648C13.7436 7.1648 13.4283 7.47977 13.4283 7.86856C13.4283 8.25723 13.7436 8.57257 14.1323 8.57257C14.5209 8.57257 14.8363 8.25723 14.8363 7.86856C14.8363 7.47989 14.5209 7.16455 14.1323 7.16455V7.1648ZM7.98785 11.0002C7.98785 9.33638 9.33676 7.98743 11.0005 7.98736C12.6644 7.98736 14.013 9.33634 14.013 11.0002C14.013 12.664 12.6645 14.0124 11.0007 14.0124C9.33683 14.0124 7.98785 12.664 7.98785 11.0002Z" fill="white"/>
<path d="M11.0005 9.04443C12.0805 9.04443 12.9561 9.91992 12.9561 11C12.9561 12.08 12.0805 12.9556 11.0005 12.9556C9.92041 12.9556 9.04492 12.08 9.04492 11C9.04492 9.91992 9.92041 9.04443 11.0005 9.04443Z" fill="white"/>
</g>
</svg>
