<svg width="96" height="95" viewBox="0 0 96 95" fill="none" xmlns="http://www.w3.org/2000/svg">
<path d="M48 87.4C46.8125 87.4 45.625 87.1229 44.6354 86.5688C37.2333 82.5313 24.2104 78.2563 16.0562 77.1875L14.9083 77.0292C9.72288 76.3958 5.44788 71.5271 5.44788 66.2625V18.4459C5.44788 15.3188 6.67496 12.4688 8.93121 10.4105C11.1875 8.35212 14.1166 7.36254 17.2041 7.63962C25.9125 8.31254 39.0541 12.6667 46.4958 17.3375L47.4458 17.8917C47.7229 18.05 48.3166 18.05 48.5541 17.9313L49.1875 17.5355C56.6291 12.8646 69.7708 8.43129 78.5187 7.67921C78.5979 7.67921 78.9145 7.67921 78.9937 7.67921C81.8833 7.40212 84.852 8.43129 87.0687 10.4896C89.325 12.548 90.552 15.398 90.552 18.525V66.3021C90.552 71.6063 86.277 76.4354 81.052 77.0687L79.7458 77.2271C71.5916 78.2958 58.5291 82.6104 51.2854 86.6083C50.3354 87.1625 49.1875 87.4 48 87.4ZM16.2541 13.5375C14.9875 13.5375 13.8395 13.973 12.9291 14.8042C11.9395 15.7146 11.3854 17.0209 11.3854 18.4459V66.2625C11.3854 68.5979 13.4041 70.8542 15.6604 71.1708L16.8479 71.3292C25.7541 72.5167 39.4104 76.9896 47.327 81.3042C47.6833 81.4625 48.1979 81.5021 48.3958 81.4229C56.3125 77.0292 70.0479 72.5167 78.9937 71.3292L80.3395 71.1708C82.5958 70.8938 84.6145 68.5979 84.6145 66.2625V18.4855C84.6145 17.0209 84.0604 15.7542 83.0708 14.8042C82.0416 13.8938 80.7354 13.4584 79.2708 13.5375C79.1916 13.5375 78.875 13.5375 78.7958 13.5375C71.2354 14.2105 59.0437 18.2875 52.3937 22.4438L51.7604 22.8792C49.5833 24.225 46.4958 24.225 44.3979 22.9188L43.4479 22.3646C36.6791 18.2084 24.4875 14.1709 16.7291 13.5375C16.5708 13.5375 16.4125 13.5375 16.2541 13.5375Z" fill="#292D32"/>
<path d="M48 84.0758C46.3771 84.0758 45.0312 82.73 45.0312 81.107V21.7322C45.0312 20.1092 46.3771 18.7634 48 18.7634C49.6229 18.7634 50.9688 20.1092 50.9688 21.7322V81.107C50.9688 82.7695 49.6229 84.0758 48 84.0758Z" fill="#292D32"/>
<path d="M31.1771 36.5759H22.2709C20.648 36.5759 19.3021 35.2301 19.3021 33.6072C19.3021 31.9842 20.648 30.6384 22.2709 30.6384H31.1771C32.8 30.6384 34.1459 31.9842 34.1459 33.6072C34.1459 35.2301 32.8 36.5759 31.1771 36.5759Z" fill="#292D32"/>
<path d="M34.1459 48.4508H22.2709C20.648 48.4508 19.3021 47.105 19.3021 45.4821C19.3021 43.8591 20.648 42.5133 22.2709 42.5133H34.1459C35.7688 42.5133 37.1146 43.8591 37.1146 45.4821C37.1146 47.105 35.7688 48.4508 34.1459 48.4508Z" fill="#292D32"/>
</svg>
