<svg width="96" height="95" viewBox="0 0 96 95" fill="none" xmlns="http://www.w3.org/2000/svg">
<path d="M32.1666 22.7604C30.5437 22.7604 29.1979 21.4146 29.1979 19.7917V7.91667C29.1979 6.29376 30.5437 4.94792 32.1666 4.94792C33.7895 4.94792 35.1354 6.29376 35.1354 7.91667V19.7917C35.1354 21.4146 33.7895 22.7604 32.1666 22.7604Z" fill="#202328"/>
<path d="M63.8334 22.7604C62.2105 22.7604 60.8646 21.4146 60.8646 19.7917V7.91667C60.8646 6.29376 62.2105 4.94792 63.8334 4.94792C65.4563 4.94792 66.8021 6.29376 66.8021 7.91667V19.7917C66.8021 21.4146 65.4563 22.7604 63.8334 22.7604Z" fill="#202328"/>
<path d="M34.1458 57.395C33.6312 57.395 33.1167 57.2763 32.6417 57.0784C32.1271 56.8805 31.7312 56.6034 31.3354 56.2471C30.6229 55.495 30.1875 54.5055 30.1875 53.4367C30.1875 52.9221 30.3062 52.4075 30.5042 51.9325C30.7021 51.4575 30.9792 51.0221 31.3354 50.6263C31.7312 50.27 32.1271 49.993 32.6417 49.795C34.0667 49.2013 35.8479 49.518 36.9563 50.6263C37.6687 51.3784 38.1042 52.4075 38.1042 53.4367C38.1042 53.6742 38.0646 53.9513 38.025 54.2284C37.9854 54.4659 37.9062 54.7034 37.7875 54.9409C37.7083 55.1784 37.5896 55.4159 37.4312 55.6534C37.3125 55.8513 37.1146 56.0492 36.9563 56.2471C36.2042 56.9596 35.175 57.395 34.1458 57.395Z" fill="#202328"/>
<path d="M48 57.3954C47.4854 57.3954 46.9708 57.2767 46.4958 57.0788C45.9812 56.8808 45.5854 56.6038 45.1895 56.2475C44.477 55.4954 44.0416 54.5058 44.0416 53.4371C44.0416 52.9225 44.1604 52.4079 44.3583 51.9329C44.5562 51.4579 44.8333 51.0225 45.1895 50.6267C45.5854 50.2704 45.9812 49.9933 46.4958 49.7954C47.9208 49.1621 49.702 49.5183 50.8104 50.6267C51.5229 51.3788 51.9583 52.4079 51.9583 53.4371C51.9583 53.6746 51.9187 53.9517 51.8791 54.2288C51.8395 54.4663 51.7604 54.7038 51.6416 54.9413C51.5625 55.1788 51.4437 55.4163 51.2854 55.6538C51.1666 55.8517 50.9687 56.0496 50.8104 56.2475C50.0583 56.96 49.0291 57.3954 48 57.3954Z" fill="#202328"/>
<path d="M61.8542 57.3954C61.3396 57.3954 60.825 57.2767 60.35 57.0788C59.8355 56.8808 59.4396 56.6038 59.0438 56.2475C58.8855 56.0496 58.7271 55.8517 58.5688 55.6538C58.4105 55.4163 58.2917 55.1788 58.2125 54.9413C58.0938 54.7038 58.0146 54.4663 57.975 54.2288C57.9355 53.9517 57.8959 53.6746 57.8959 53.4371C57.8959 52.4079 58.3313 51.3788 59.0438 50.6267C59.4396 50.2704 59.8355 49.9933 60.35 49.7954C61.8146 49.1621 63.5563 49.5183 64.6646 50.6267C65.3771 51.3788 65.8125 52.4079 65.8125 53.4371C65.8125 53.6746 65.773 53.9517 65.7334 54.2288C65.6938 54.4663 65.6146 54.7038 65.4959 54.9413C65.4167 55.1788 65.298 55.4163 65.1396 55.6538C65.0209 55.8517 64.823 56.0496 64.6646 56.2475C63.9125 56.96 62.8834 57.3954 61.8542 57.3954Z" fill="#202328"/>
<path d="M34.1458 71.2508C33.6312 71.2508 33.1167 71.132 32.6417 70.9341C32.1667 70.7362 31.7312 70.4591 31.3354 70.1029C30.6229 69.3508 30.1875 68.3216 30.1875 67.2925C30.1875 66.7779 30.3062 66.2633 30.5042 65.7883C30.7021 65.2737 30.9792 64.8383 31.3354 64.482C32.8 63.0175 35.4917 63.0175 36.9563 64.482C37.6687 65.2341 38.1042 66.2633 38.1042 67.2925C38.1042 68.3216 37.6687 69.3508 36.9563 70.1029C36.2042 70.8154 35.175 71.2508 34.1458 71.2508Z" fill="#202328"/>
<path d="M48 71.2508C46.9708 71.2508 45.9416 70.8154 45.1895 70.1029C44.477 69.3508 44.0416 68.3216 44.0416 67.2925C44.0416 66.7779 44.1604 66.2633 44.3583 65.7883C44.5562 65.2737 44.8333 64.8383 45.1895 64.482C46.6541 63.0175 49.3458 63.0175 50.8104 64.482C51.1666 64.8383 51.4437 65.2737 51.6416 65.7883C51.8395 66.2633 51.9583 66.7779 51.9583 67.2925C51.9583 68.3216 51.5229 69.3508 50.8104 70.1029C50.0583 70.8154 49.0291 71.2508 48 71.2508Z" fill="#202328"/>
<path d="M61.8542 71.2496C60.825 71.2496 59.7959 70.8142 59.0438 70.1017C58.6875 69.7454 58.4105 69.31 58.2125 68.7954C58.0146 68.3204 57.8959 67.8058 57.8959 67.2913C57.8959 66.7767 58.0146 66.2621 58.2125 65.7871C58.4105 65.2725 58.6875 64.8371 59.0438 64.4808C59.9542 63.5704 61.3396 63.135 62.6063 63.4121C62.8834 63.4517 63.1209 63.5308 63.3584 63.6496C63.5959 63.7288 63.8334 63.8475 64.0709 64.0058C64.2688 64.1246 64.4667 64.3225 64.6646 64.4808C65.3771 65.2329 65.8125 66.2621 65.8125 67.2913C65.8125 68.3204 65.3771 69.3496 64.6646 70.1017C63.9125 70.8142 62.8834 71.2496 61.8542 71.2496Z" fill="#202328"/>
<path d="M81.6458 38.9494H14.3541C12.7312 38.9494 11.3854 37.6035 11.3854 35.9806C11.3854 34.3577 12.7312 33.0119 14.3541 33.0119H81.6458C83.2687 33.0119 84.6145 34.3577 84.6145 35.9806C84.6145 37.6035 83.2687 38.9494 81.6458 38.9494Z" fill="#202328"/>
<path d="M63.8333 90.0521H32.1667C17.7187 90.0521 9.40625 81.7396 9.40625 67.2917V33.6458C9.40625 19.1979 17.7187 10.8854 32.1667 10.8854H63.8333C78.2812 10.8854 86.5938 19.1979 86.5938 33.6458V67.2917C86.5938 81.7396 78.2812 90.0521 63.8333 90.0521ZM32.1667 16.8229C20.8458 16.8229 15.3438 22.325 15.3438 33.6458V67.2917C15.3438 78.6125 20.8458 84.1146 32.1667 84.1146H63.8333C75.1542 84.1146 80.6562 78.6125 80.6562 67.2917V33.6458C80.6562 22.325 75.1542 16.8229 63.8333 16.8229H32.1667Z" fill="#202328"/>
</svg>
