<svg width="96" height="95" viewBox="0 0 96 95" fill="none" xmlns="http://www.w3.org/2000/svg">
<path d="M48.0387 67.2909C44.6741 67.2909 41.27 66.42 38.618 64.718L14.7888 49.1617C10.3555 46.2721 7.70337 41.4034 7.70337 36.0992C7.70337 30.795 10.3555 25.9263 14.7888 23.0367L38.6575 7.52001C43.9616 4.07626 52.2345 4.07626 57.4991 7.55959L81.2095 23.1158C85.6033 26.0054 88.2554 30.8742 88.2554 36.1388C88.2554 41.4034 85.6033 46.2721 81.2095 49.1617L57.4991 64.718C54.847 66.4596 51.4429 67.2909 48.0387 67.2909ZM48.0387 10.8846C45.7825 10.8846 43.5262 11.3992 41.9033 12.5075L18.0742 28.0242C15.3034 29.845 13.6805 32.7742 13.6805 36.0992C13.6805 39.4242 15.2638 42.3534 18.0742 44.1742L41.9033 59.7305C45.1887 61.868 50.9679 61.868 54.2533 59.7305L77.9637 44.1742C80.7345 42.3534 82.3179 39.4242 82.3179 36.0992C82.3179 32.7742 80.7345 29.845 77.9637 28.0242L54.2533 12.4679C52.5908 11.4388 50.3345 10.8846 48.0387 10.8846Z" fill="#292D32"/>
<path d="M48.0008 90.0525C46.2592 90.0525 44.4779 89.815 43.0529 89.34L30.4258 85.1441C24.4487 83.165 19.7383 76.6337 19.7778 70.34L19.8174 51.7754C19.8174 50.1525 21.1633 48.8066 22.7862 48.8066C24.4091 48.8066 25.7549 50.1525 25.7549 51.7754L25.7153 70.34C25.7153 74.0608 28.8028 78.3358 32.3258 79.5233L44.9529 83.7191C46.5362 84.2337 49.4654 84.2337 51.0487 83.7191L63.6758 79.5233C67.1987 78.3358 70.2862 74.0608 70.2862 70.3796V52.0129C70.2862 50.39 71.6321 49.0441 73.255 49.0441C74.8779 49.0441 76.2237 50.39 76.2237 52.0129V70.3796C76.2237 76.6733 71.5529 83.165 65.5758 85.1837L52.9487 89.3796C51.5238 89.815 49.7425 90.0525 48.0008 90.0525Z" fill="#292D32"/>
<path d="M85.208 62.3438C83.5851 62.3438 82.2393 60.9979 82.2393 59.375V35.625C82.2393 34.0021 83.5851 32.6562 85.208 32.6562C86.8309 32.6562 88.1768 34.0021 88.1768 35.625V59.375C88.1768 60.9979 86.8309 62.3438 85.208 62.3438Z" fill="#292D32"/>
</svg>
