<svg width="22" height="22" viewBox="0 0 22 22" fill="none" xmlns="http://www.w3.org/2000/svg">
<path opacity="0.8" fill-rule="evenodd" clip-rule="evenodd" d="M22 11C22 17.0751 17.0751 22 11 22C4.92487 22 0 17.0751 0 11C0 4.92487 4.92487 0 11 0C17.0751 0 22 4.92487 22 11ZM7.36612 9.99236C6.2642 10.4735 5.13199 10.9678 4.0967 11.5381L4.09663 11.5382C3.55603 11.9339 4.27459 12.2139 4.94865 12.4765C5.05581 12.5183 5.16185 12.5596 5.26153 12.6008C5.34447 12.6263 5.42882 12.6532 5.5143 12.6804C6.26398 12.9193 7.09992 13.1856 7.82773 12.785C9.02333 12.0982 10.1516 11.3041 11.2791 10.5107C11.6484 10.2508 12.0177 9.99088 12.3892 9.73486C12.4067 9.72372 12.4263 9.71099 12.4478 9.69707C12.7643 9.4919 13.4761 9.0305 13.2128 9.66628C12.5902 10.3472 11.9233 10.9499 11.2527 11.556C10.8009 11.9644 10.3473 12.3743 9.90455 12.8106C9.51892 13.1239 9.11851 13.754 9.55031 14.1928C10.5448 14.889 11.5549 15.5683 12.5643 16.2473C12.8929 16.4682 13.2213 16.6892 13.5492 16.9106C14.1048 17.3542 14.9731 16.9954 15.0952 16.3022C15.1495 15.9834 15.2041 15.6645 15.2586 15.3456C15.56 13.5835 15.8615 11.8207 16.1278 10.0528C16.164 9.77554 16.2051 9.49824 16.2461 9.2208C16.3456 8.54837 16.4453 7.87512 16.4764 7.19908C16.3962 6.52444 15.5782 6.67277 15.1229 6.82447C12.783 7.71483 10.4665 8.67119 8.15918 9.64441C7.89781 9.76021 7.63285 9.8759 7.36612 9.99236Z" fill="white"/>
</svg>
