<svg width="22" height="22" viewBox="0 0 22 22" fill="none" xmlns="http://www.w3.org/2000/svg">
<g opacity="0.8" clip-path="url(#clip0_263_102)">
<path fill-rule="evenodd" clip-rule="evenodd" d="M6.63238 17.1064C7.06802 17.3363 7.55318 17.4563 8.04573 17.4561C9.68634 17.4561 11.0256 16.1511 11.0861 14.5246L11.0921 0H14.716C14.7163 0.308497 14.745 0.616311 14.8016 0.919564H12.1482V0.920066H14.8016H15.7726C15.7721 2.13567 16.2127 3.31016 17.0126 4.22546C17.013 4.22585 17.0133 4.22624 17.0136 4.22663C17.8297 4.75969 18.7835 5.04314 19.7582 5.04223V5.84933C20.0993 5.92239 20.4521 5.9613 20.8148 5.9613V9.58614C19.0056 9.58823 17.2415 9.02095 15.7726 7.96469V15.3298C15.7726 19.0075 12.7801 22 9.10186 22C8.18586 22.0002 7.27969 21.8113 6.44013 21.4449C5.60118 21.0789 4.84681 20.5436 4.22424 19.8726C4.22378 19.8723 4.22334 19.872 4.22288 19.8717C2.50266 18.6639 1.375 16.6665 1.375 14.4102C1.375 10.7319 4.36749 7.73895 8.04574 7.73895C8.34652 7.74039 8.64684 7.76227 8.94465 7.80445V8.66254C8.94465 8.66254 8.94465 8.66254 8.94465 8.66254L8.94464 11.5044C8.94464 11.5044 8.94464 11.5044 8.94464 11.5044L8.94465 8.66254C8.96558 8.66214 8.98643 8.66142 9.00729 8.66069C9.03867 8.6596 9.07008 8.65851 9.10186 8.65851C9.40263 8.65995 9.70296 8.68183 10.0008 8.72401V12.4239C9.71658 12.3348 9.41577 12.2829 9.10186 12.2829C8.2941 12.2838 7.5197 12.6051 6.94858 13.1763C6.37745 13.7476 6.05625 14.522 6.05545 15.3298C6.05549 15.9678 6.25714 16.5894 6.63158 17.106C6.63184 17.1061 6.63211 17.1063 6.63238 17.1064ZM10.522 18.0237C11.4549 17.5288 12.1008 16.5622 12.1427 15.4436V15.4441C12.1008 16.5623 11.4549 17.5288 10.522 18.0237ZM8.04602 11.3633C8.23252 11.3633 8.41456 11.3815 8.59139 11.4152C8.41182 11.3813 8.22927 11.3639 8.04602 11.3633ZM5.89263 12.2566C5.89263 12.2566 5.89264 12.2566 5.89263 12.2566V12.2566ZM2.87113 17.7099C3.18072 18.5165 3.64274 19.2482 4.22141 19.8701C3.63096 19.2382 3.17503 18.5034 2.87113 17.7099ZM8.04575 21.0804C8.04574 21.0804 8.04575 21.0804 8.04575 21.0804V21.0804ZM14.716 14.4097V7.04462C14.716 7.04461 14.716 7.04462 14.716 7.04462V14.4097Z" fill="white"/>
</g>
<defs>
<clipPath id="clip0_263_102">
<rect width="22" height="22" fill="white"/>
</clipPath>
</defs>
</svg>
