<svg width="23" height="23" viewBox="0 0 23 23" fill="none" xmlns="http://www.w3.org/2000/svg">
<g opacity="0.8">
<path fill-rule="evenodd" clip-rule="evenodd" d="M15.331 0.954102H8.57725C2.41352 0.954102 0.954102 2.41352 0.954102 8.57725V15.331C0.954102 21.4947 2.41352 22.9541 8.57725 22.9541H15.331C21.4947 22.9541 22.9541 21.4947 22.9541 15.331V8.57725C22.9541 2.41352 21.4947 0.954102 15.331 0.954102ZM18.4827 7.94069C18.964 7.94069 19.0727 8.1891 18.964 8.53067C18.7944 9.31347 17.3859 11.39 16.9496 12.0331C16.8668 12.1553 16.819 12.2258 16.8214 12.2258C16.6507 12.5053 16.5886 12.6295 16.8214 12.94C16.9056 13.0548 17.0842 13.23 17.2882 13.4302C17.498 13.6361 17.7348 13.8685 17.9238 14.0889C18.6069 14.8652 19.1348 15.5173 19.2745 15.9675C19.3987 16.4178 19.1814 16.6506 18.7156 16.6506H17.1164C16.6926 16.6506 16.4742 16.4073 16.0086 15.8886C15.809 15.6662 15.564 15.3932 15.2378 15.067C14.2907 14.151 13.8715 14.0268 13.6387 14.0268C13.3126 14.0268 13.2195 14.1044 13.2195 14.5702V16.0141C13.2195 16.4022 13.0953 16.6351 12.0706 16.6351C10.3783 16.6351 8.49963 15.6104 7.17994 13.7007C5.19265 10.9061 4.64925 8.79461 4.64925 8.37541C4.64925 8.14253 4.72688 7.92517 5.19265 7.92517H6.80733C7.211 7.92517 7.36625 8.09595 7.52151 8.5462C8.31332 10.8285 9.63301 12.8313 10.1764 12.8313C10.3783 12.8313 10.4714 12.7382 10.4714 12.2258V9.86589C10.4331 9.1951 10.1996 8.90285 10.0264 8.68613C9.91903 8.55172 9.83485 8.44636 9.83485 8.29778C9.83485 8.11147 9.99011 7.92517 10.2385 7.92517H12.7537C13.0953 7.92517 13.2195 8.11147 13.2195 8.51514V11.6979C13.2195 12.0395 13.3592 12.1637 13.4679 12.1637C13.6697 12.1637 13.8405 12.0395 14.2131 11.6669C15.362 10.3782 16.1849 8.39094 16.1849 8.39094C16.2936 8.15805 16.4799 7.94069 16.8835 7.94069H18.4827Z" fill="white"/>
</g>
</svg>
